<svg xmlns="http://www.w3.org/2000/svg" viewBox="26.44 44.86 1004.86 150.79" width="1004.86" height="150.79">
<style>@keyframes tk-d0 { 0% { stroke-dashoffset:69.8 } 1.74%,89% { stroke-dashoffset:0 } 92.3%,100% { stroke-dashoffset:69.8 } } @keyframes tk-d1 { 0%,3.39% { stroke-dashoffset:91.62 } 5.72%,89% { stroke-dashoffset:0 } 92.3%,100% { stroke-dashoffset:91.62 } } @keyframes tk-d2 { 0%,4.58% { stroke-dashoffset:175.03 } 9.31%,89% { stroke-dashoffset:0 } 92.3%,100% { stroke-dashoffset:175.03 } } @keyframes tk-d3 { 0%,8.36% { stroke-dashoffset:228.23 } 14.61%,89% { stroke-dashoffset:0 } 92.3%,100% { stroke-dashoffset:228.23 } } @keyframes tk-d4 { 0%,16.26% { opacity:0 } 16.66%,100% { opacity:1 } } @keyframes tk-d5 { 0%,14.69% { stroke-dashoffset:173.79 } 19.37%,89% { stroke-dashoffset:0 } 92.3%,100% { stroke-dashoffset:173.79 } } @keyframes tk-d6 { 0%,18.43% { stroke-dashoffset:165.82 } 22.87%,89% { stroke-dashoffset:0 } 92.3%,100% { stroke-dashoffset:165.82 } } @keyframes tk-d7 { 0%,24.52% { stroke-dashoffset:41.51 } 25.44%,89% { stroke-dashoffset:0 } 92.3%,100% { stroke-dashoffset:41.51 } } @keyframes tk-d8 { 0%,24.04% { stroke-dashoffset:63.98 } 25.59%,89% { stroke-dashoffset:0 } 92.3%,100% { stroke-dashoffset:63.98 } } @keyframes tk-d9 { 0%,27.24% { stroke-dashoffset:17.22 } 27.44%,89% { stroke-dashoffset:0 } 92.3%,100% { stroke-dashoffset:17.22 } } @keyframes tk-d10 { 0%,28.41% { stroke-dashoffset:63.98 } 29.96%,89% { stroke-dashoffset:0 } 92.3%,100% { stroke-dashoffset:63.98 } } @keyframes tk-d11 { 0%,31.61% { stroke-dashoffset:17.22 } 31.81%,89% { stroke-dashoffset:0 } 92.3%,100% { stroke-dashoffset:17.22 } } @keyframes tk-d12 { 0%,31.13% { stroke-dashoffset:129.99 } 34.57%,89% { stroke-dashoffset:0 } 92.3%,100% { stroke-dashoffset:129.99 } } @keyframes tk-d13 { 0%,35.53% { stroke-dashoffset:173.79 } 40.22%,89% { stroke-dashoffset:0 } 92.3%,100% { stroke-dashoffset:173.79 } } @keyframes tk-d14 { 0%,39.28% { stroke-dashoffset:231.25 } 45.63%,89% { stroke-dashoffset:0 } 92.3%,100% { stroke-dashoffset:231.25 } } @keyframes tk-d15 { 0%,47.28% { stroke-dashoffset:22.14 } 47.57%,89% { stroke-dashoffset:0 } 92.3%,100% { stroke-dashoffset:22.14 } } @keyframes tk-d16 { 0%,49.22% { opacity:0 } 49.62%,100% { opacity:1 } } @keyframes tk-d17 { 0%,47.24% { stroke-dashoffset:175.03 } 51.97%,89% { stroke-dashoffset:0 } 92.3%,100% { stroke-dashoffset:175.03 } } @keyframes tk-d18 { 0%,51.03% { stroke-dashoffset:129.99 } 54.47%,89% { stroke-dashoffset:0 } 92.3%,100% { stroke-dashoffset:129.99 } } @keyframes tk-d19 { 0%,53.78% { stroke-dashoffset:154.78 } 57.92%,89% { stroke-dashoffset:0 } 92.3%,100% { stroke-dashoffset:154.78 } } @keyframes tk-d20 { 0%,57.09% { stroke-dashoffset:177.53 } 61.87%,89% { stroke-dashoffset:0 } 92.3%,100% { stroke-dashoffset:177.53 } } @keyframes tk-d21 { 0%,63.52% { stroke-dashoffset:132.02 } 67%,89% { stroke-dashoffset:0 } 92.3%,100% { stroke-dashoffset:132.02 } } @keyframes tk-d22 { 0%,68.65% { stroke-dashoffset:14.15 } 68.76%,89% { stroke-dashoffset:0 } 92.3%,100% { stroke-dashoffset:14.15 } } @keyframes tk-d23 { 0%,70.41% { stroke-dashoffset:2.33 } 70.44%,89% { stroke-dashoffset:0 } 92.3%,100% { stroke-dashoffset:2.33 } } @keyframes tk-d24 { 0%,67.77% { stroke-dashoffset:175.03 } 72.5%,89% { stroke-dashoffset:0 } 92.3%,100% { stroke-dashoffset:175.03 } } @keyframes tk-fade { 0%,89% { opacity:1 } 92.3%,100% { opacity:0 } } .tk-s0 { animation: tk-d0 9.09s infinite } .tk-s1 { animation: tk-d1 9.09s infinite } .tk-s2 { animation: tk-d2 9.09s infinite } .tk-s3 { animation: tk-d3 9.09s infinite } .tk-s4 { animation: tk-d4 9.09s infinite } .tk-s5 { animation: tk-d5 9.09s infinite } .tk-s6 { animation: tk-d6 9.09s infinite } .tk-s7 { animation: tk-d7 9.09s infinite } .tk-s8 { animation: tk-d8 9.09s infinite } .tk-s9 { animation: tk-d9 9.09s infinite } .tk-s10 { animation: tk-d10 9.09s infinite } .tk-s11 { animation: tk-d11 9.09s infinite } .tk-s12 { animation: tk-d12 9.09s infinite } .tk-s13 { animation: tk-d13 9.09s infinite } .tk-s14 { animation: tk-d14 9.09s infinite } .tk-s15 { animation: tk-d15 9.09s infinite } .tk-s16 { animation: tk-d16 9.09s infinite } .tk-s17 { animation: tk-d17 9.09s infinite } .tk-s18 { animation: tk-d18 9.09s infinite } .tk-s19 { animation: tk-d19 9.09s infinite } .tk-s20 { animation: tk-d20 9.09s infinite } .tk-s21 { animation: tk-d21 9.09s infinite } .tk-s22 { animation: tk-d22 9.09s infinite } .tk-s23 { animation: tk-d23 9.09s infinite } .tk-s24 { animation: tk-d24 9.09s infinite } .tk-grp { animation: tk-fade 9.09s infinite }</style>
<g class="tk-grp">
<path class="tk-s0" d="M 39 69.1 L 40.39 69.43 L 41.78 69.76 L 43.16 70.08 L 45.12 69.96 L 47.08 69.84 L 49.03 69.72 L 50.99 69.59 L 52.95 69.47 L 54.9 69.35 L 56.88 69.37 L 58.86 69.39 L 60.83 69.41 L 62.81 69.42 L 64.78 69.44 L 66.76 69.46 L 68.74 69.48 L 70.71 69.5 L 72.69 69.52 L 74.66 69.54 L 76.64 69.56 L 78.62 69.57 L 80.59 69.59 L 82.43 69.84 L 84.26 70.08 L 86.1 70.33 L 87.93 70.57 L 89.76 70.82 L 91.6 71.06 L 93.5 71.55 L 95.39 72.04 L 97.29 72.53 L 99.18 73.02" fill="none" stroke="#1a1a1a" stroke-width="9.13" stroke-linecap="round" stroke-linejoin="round" stroke-dasharray="69.8" stroke-dashoffset="69.8" />
<path class="tk-s1" d="M 67.14 69.84 L 67.09 71.7 L 67.04 73.56 L 66.99 75.42 L 66.94 77.28 L 66.89 79.13 L 66.56 80.94 L 66.22 82.74 L 65.88 84.55 L 65.55 86.35 L 65.21 88.16 L 64.87 89.96 L 64.54 91.76 L 64.2 93.57 L 63.74 95.45 L 63.28 97.33 L 62.82 99.21 L 62.36 101.1 L 61.89 102.98 L 61.43 104.86 L 60.97 106.74 L 60.51 108.62 L 60.05 110.5 L 59.59 112.39 L 59.13 114.27 L 58.67 116.15 L 58.21 118.03 L 57.75 119.91 L 57.28 121.8 L 56.82 123.68 L 56.36 125.56 L 55.9 127.44 L 55.44 129.32 L 54.98 131.2 L 54.52 133.09 L 54.06 134.97 L 53.6 136.85 L 53.13 138.73 L 52.67 140.61 L 52.21 142.5 L 52.09 143.72 L 51.97 144.94 L 52.29 146.49 L 52.62 148.04 L 52.95 149.59" fill="none" stroke="#1a1a1a" stroke-width="10.05" stroke-linecap="round" stroke-linejoin="round" stroke-dasharray="91.62" stroke-dashoffset="91.62" />
<path class="tk-s2" d="M 106.1 119.54 L 106.45 117.68 L 106.8 115.82 L 107.15 113.95 L 107.67 112.91 L 108.2 111.86 L 109.18 110.5 L 110.15 109.13 L 111.13 107.77 L 112.11 106.41 L 113.09 105.05 L 114.37 103.65 L 115.65 102.26 L 116.93 100.86 L 118.24 99.81 L 119.55 98.76 L 121.18 97.89 L 122.81 97.02 L 124.44 96.14 L 126.09 95.88 L 127.75 95.62 L 129.44 95.8 L 131.13 95.97 L 132.82 96.14 L 134.39 96.84 L 135.96 97.54 L 137.09 98.63 L 138.23 99.72 L 139.36 100.81 L 140.5 101.91 L 141.25 103.3 L 142.01 104.7 L 142.77 106.1 L 143.06 107.73 L 143.35 109.36 L 143.64 110.98 L 143.29 112.44 L 142.94 113.89 L 142.59 115.35 L 141.89 116.22 L 141.2 117.1 L 139.8 118.09 L 138.4 119.07 L 137.01 120.06 L 135.67 120.53 L 134.33 120.99 L 132.99 121.46 L 131.33 121.72 L 129.67 121.98 L 128.01 122.25 L 126.36 122.51 L 124.75 122.47 L 123.14 122.44 L 121.54 122.4 L 119.93 122.37 L 118.32 122.33 L 116.55 122.13 L 114.77 121.93 L 113 121.72 L 111.22 121.52 L 109.45 121.31 L 107.67 121.11 L 106.8 120.33 L 105.93 119.54 L 104.36 120.41 L 103.48 121.98 L 103.08 123.5 L 102.67 125.01 L 102.26 126.52 L 102.09 128.14 L 101.91 129.75 L 101.74 131.37 L 101.56 132.98 L 101.86 134.85 L 102.15 136.71 L 102.44 138.57 L 102.96 140.05 L 103.48 141.54 L 104.82 142.99 L 106.16 144.45 L 107.5 145.9 L 108.95 146.49 L 110.41 147.07 L 111.86 147.65 L 113.61 147.91 L 115.36 148.17 L 117.1 148.43 L 118.85 148.7 L 120.54 148.52 L 122.22 148.35 L 123.91 148.17 L 125.55 147.72 L 127.19 147.27 L 128.84 146.81 L 130.48 146.36 L 132.12 145.9 L 133.78 145.03 L 135.43 144.16 L 137.09 143.28 L 138.75 142.41" fill="none" stroke="#1a1a1a" stroke-width="9.8" stroke-linecap="round" stroke-linejoin="round" stroke-dasharray="175.03" stroke-dashoffset="175.03" />
<path class="tk-s3" d="M 153.6 171.04 L 153.87 172.64 L 154.67 173.7 L 155.47 174.77 L 156.27 175.84 L 157.4 176.91 L 158.54 177.97 L 159.67 179.04 L 160.81 180.11 L 162.23 180.73 L 163.65 181.35 L 165.08 181.98 L 166.68 182.11 L 168.28 182.24 L 169.88 182.38 L 171.48 182.51 L 173.08 182.15 L 174.68 181.8 L 176.28 181.44 L 177.53 180.38 L 178.77 179.31 L 180.02 178.24 L 181.08 176.64 L 182.15 175.04 L 182.82 173.5 L 183.48 171.97 L 184.15 170.44 L 184.82 168.9 L 185.35 167.06 L 185.89 165.22 L 186.42 163.38 L 186.95 161.54 L 187.49 159.7 L 188.02 157.86 L 188.55 156.02 L 189.09 154.17 L 189.62 152.33 L 190.16 150.49 L 190.37 148.78 L 190.58 147.08 L 190.8 145.37 L 191.01 143.66 L 191.22 141.95 L 190.69 140.62 L 191.7 138.91 L 192.72 137.2 L 193.73 135.5 L 194.74 133.79 L 195.76 132.08 L 196.52 130.48 L 197.28 128.88 L 198.05 127.28 L 198.81 125.68 L 199.57 124.08 L 200.33 122.48 L 201.09 120.88 L 201.04 119.11 L 200.99 117.35 L 200.93 115.59 L 200.88 113.83 L 200.83 112.07 L 200.56 110.34 L 200.29 108.6 L 200.03 106.87 L 199.76 105.13 L 199.23 103.67 L 198.69 102.2 L 197.76 100.93 L 196.83 99.66 L 195.89 98.4 L 194.96 97.13 L 193.27 96.68 L 191.58 96.24 L 189.89 95.8 L 188.82 95.93 L 187.75 96.06 L 186.24 96.6 L 184.73 97.13 L 183.22 97.66 L 182.15 98.46 L 181.08 99.26 L 180.02 100.06 L 178.82 101.2 L 177.62 102.33 L 176.41 103.47 L 175.21 104.6 L 174.15 105.93 L 173.08 107.27 L 172.01 108.6 L 170.95 109.94 L 169.95 111.65 L 168.96 113.37 L 167.97 115.08 L 166.98 116.8 L 165.99 118.51 L 165 120.23 L 164.01 121.94 L 163.47 123.58 L 162.94 125.22 L 162.41 126.86 L 161.87 128.5 L 161.34 130.14 L 160.81 131.78 L 160.27 133.42 L 160.14 135.28 L 160.01 137.15 L 160.36 138.93 L 160.72 140.71 L 161.07 142.49 L 162.05 143.73 L 163.03 144.98 L 164.01 146.22 L 165.08 146.76 L 166.74 146.96 L 168.41 147.16 L 170.08 147.36 L 171.75 147.56 L 173.61 147.11 L 175.48 146.67 L 177.35 146.22 L 178.68 145.42 L 180.02 144.62 L 181.35 143.82 L 182.68 143.02 L 184.15 142.69 L 185.62 142.35 L 187.09 142.02 L 188.55 141.69 L 189.62 141.15 L 190.69 140.62" fill="none" stroke="#1a1a1a" stroke-width="10.29" stroke-linecap="round" stroke-linejoin="round" stroke-dasharray="228.23" stroke-dashoffset="228.23" />
<circle class="tk-s4" cx="195.49" cy="97.4" r="5.15" fill="#1a1a1a" opacity="0" />
<path class="tk-s5" d="M 255.09 133.33 L 253.39 134.07 L 251.69 134.82 L 249.99 135.56 L 248.28 136.3 L 247.1 137.56 L 245.91 138.81 L 244.72 140.07 L 243.53 141.33 L 242.35 142.59 L 241.01 143.58 L 239.67 144.56 L 238.33 145.55 L 236.58 146.34 L 234.84 147.13 L 232.92 147.47 L 231 147.82 L 229.25 147.53 L 227.51 147.24 L 225.76 146.95 L 224.19 146.43 L 222.62 145.2 L 221.48 143.98 L 220.35 142.76 L 219.94 141.07 L 219.53 139.39 L 219.13 137.7 L 219.3 136.08 L 219.48 134.47 L 219.65 132.85 L 219.82 131.24 L 220.45 129.6 L 221.08 127.95 L 221.71 126.31 L 222.34 124.67 L 222.97 123.03 L 223.84 121.46 L 224.71 119.89 L 225.59 118.32 L 226.46 116.75 L 227.33 115.17 L 228.52 113.6 L 229.71 112.03 L 230.89 110.46 L 232.08 108.89 L 233.27 107.32 L 234.53 105.99 L 235.78 104.66 L 237.04 103.34 L 238.3 102.01 L 239.55 100.68 L 240.78 99.72 L 242 98.76 L 243.66 97.89 L 245.31 97.02 L 247.24 96.49 L 249.16 95.97 L 250.73 95.97 L 252.3 96.38 L 253.87 96.78 L 255.44 97.19 L 256.58 98.15 L 257.71 99.11 L 258.32 100.07 L 258.93 101.03 L 259.46 102.66 L 259.98 104.29 L 260.5 105.92 L 260.5 107.84 L 260.16 109.41 L 259.81 110.98 L 259.46 112.56 L 259.46 114.39 L 259.46 116.22 L 258.93 117.1 L 258.58 118.93 L 258.23 120.76 L 258.41 122.51 L 257.96 124.18 L 257.5 125.86 L 257.05 127.54 L 256.59 129.21 L 256.14 130.89 L 255.62 132.11 L 255.09 133.33 L 256.49 134.73 L 256.45 136.58 L 256.42 138.43 L 256.38 140.28 L 256.35 142.13 L 256.31 143.98 L 256.49 145.68 L 256.66 147.39 L 256.84 149.09 L 257.01 150.79" fill="none" stroke="#1a1a1a" stroke-width="10.23" stroke-linecap="round" stroke-linejoin="round" stroke-dasharray="173.79" stroke-dashoffset="173.79" />
<path class="tk-s6" d="M 295.51 58.45 L 295.94 60.14 L 296.38 61.83 L 296.82 63.53 L 297.26 65.22 L 297.69 66.92 L 297.52 68.76 L 297.35 70.6 L 297.18 72.45 L 297.01 74.29 L 296.84 76.13 L 296.67 77.98 L 296.5 79.82 L 296.33 81.67 L 295.93 83.62 L 295.53 85.57 L 295.13 87.53 L 294.73 89.48 L 294.33 91.44 L 293.93 93.39 L 293.53 95.34 L 293.13 97.3 L 292.73 99.25 L 292.34 101.21 L 291.94 103.16 L 291.54 105.11 L 291.14 107.07 L 290.63 108.88 L 290.12 110.7 L 289.62 112.51 L 289.11 114.33 L 288.6 116.14 L 288.09 117.96 L 287.59 119.77 L 287.08 121.58 L 286.57 123.4 L 286.06 125.21 L 285.56 127.03 L 285.05 128.84 L 284.54 130.66 L 284.04 132.47 L 283.88 134.23 L 283.72 135.98 L 283.57 137.74 L 283.41 139.5 L 283.26 141.25 L 283.1 143.01 L 282.94 144.76 L 283.35 143.4 L 283.76 142.03 L 285.13 140.94 L 286.7 140.32 L 288.27 139.71 L 289.84 139.1 L 291.41 138.48 L 292.46 137.02 L 293.5 135.57 L 294.55 134.11 L 295.6 132.65 L 296.65 131.2 L 297.69 129.74 L 299.2 129.19 L 300.7 128.65 L 302.2 128.1 L 303.7 127.55 L 304.52 126.74 L 304.93 125.23 L 305.34 123.73 L 305.75 122.23 L 306.16 120.73 L 307.25 119.09 L 308.35 117.45 L 309.44 115.81 L 310.53 114.17 L 311.74 112.71 L 312.96 111.26 L 314.17 109.8 L 315.39 108.34 L 316.6 106.89 L 317.81 105.43 L 319.03 103.97 L 320.24 102.52 L 321.46 101.06 L 322.82 99.78 L 324.19 98.51 L 325.55 97.24" fill="none" stroke="#1a1a1a" stroke-width="11.17" stroke-linecap="round" stroke-linejoin="round" stroke-dasharray="165.82" stroke-dashoffset="165.82" />
<path class="tk-s7" d="M 304.25 127.01 L 305.07 127.83 L 305.89 128.65 L 306.09 130.22 L 306.3 131.79 L 306.5 133.36 L 306.71 134.93 L 307.46 136.3 L 308.21 137.66 L 308.96 139.03 L 309.71 140.39 L 310.91 141.59 L 312.12 142.8 L 313.32 144 L 314.52 145.2 L 315.72 146.4 L 317.36 147.4 L 319 148.41 L 320.64 149.41 L 322.14 149.95 L 323.64 150.5" fill="none" stroke="#1a1a1a" stroke-width="9.16" stroke-linecap="round" stroke-linejoin="round" stroke-dasharray="41.51" stroke-dashoffset="41.51" />
<path class="tk-s8" d="M 352.87 95.59 L 353.04 97.05 L 353.2 98.51 L 353.36 99.98 L 352.91 101.89 L 352.46 103.81 L 352 105.73 L 351.55 107.65 L 351.1 109.56 L 350.64 111.48 L 350.19 113.4 L 349.69 115.23 L 349.18 117.07 L 348.68 118.91 L 348.17 120.75 L 347.67 122.58 L 347.17 124.42 L 346.66 126.26 L 346.16 128.1 L 345.65 129.93 L 345.15 131.77 L 344.65 133.61 L 344.14 135.45 L 343.64 137.28 L 343.13 139.12 L 342.63 140.96 L 342.02 142.67 L 341.41 144.38 L 340.8 146.08 L 340.19 147.79" fill="none" stroke="#1a1a1a" stroke-width="9.94" stroke-linecap="round" stroke-linejoin="round" stroke-dasharray="63.98" stroke-dashoffset="63.98" />
<path class="tk-s9" d="M 358.48 71.68 L 359.52 73.08 L 360.56 74.49 L 361.59 75.89 L 362.63 77.29" fill="none" stroke="#1a1a1a" stroke-width="10.25" stroke-linecap="round" stroke-linejoin="round" stroke-dasharray="17.22" stroke-dashoffset="17.22" />
<path class="tk-s10" d="M 434.67 95.59 L 434.83 97.05 L 434.99 98.51 L 435.15 99.98 L 434.7 101.89 L 434.25 103.81 L 433.8 105.73 L 433.34 107.65 L 432.89 109.56 L 432.44 111.48 L 431.98 113.4 L 431.48 115.23 L 430.98 117.07 L 430.47 118.91 L 429.97 120.75 L 429.46 122.58 L 428.96 124.42 L 428.45 126.26 L 427.95 128.1 L 427.45 129.93 L 426.94 131.77 L 426.44 133.61 L 425.93 135.45 L 425.43 137.28 L 424.93 139.12 L 424.42 140.96 L 423.81 142.67 L 423.2 144.38 L 422.59 146.08 L 421.98 147.79" fill="none" stroke="#1a1a1a" stroke-width="9.94" stroke-linecap="round" stroke-linejoin="round" stroke-dasharray="63.98" stroke-dashoffset="63.98" />
<path class="tk-s11" d="M 440.28 71.68 L 441.31 73.08 L 442.35 74.49 L 443.39 75.89 L 444.42 77.29" fill="none" stroke="#1a1a1a" stroke-width="10.25" stroke-linecap="round" stroke-linejoin="round" stroke-dasharray="17.22" stroke-dashoffset="17.22" />
<path class="tk-s12" d="M 448.91 140.84 L 449.9 141.77 L 450.89 142.7 L 451.88 143.63 L 453.16 144.39 L 454.44 145.15 L 455.72 145.9 L 457.29 146.43 L 458.86 146.95 L 460.44 147.47 L 461.95 147.71 L 463.46 147.94 L 464.97 148.17 L 466.43 148.29 L 467.88 148.41 L 469.34 148.52 L 470.97 148.35 L 472.6 148.17 L 474.23 148 L 475.8 147.65 L 477.37 147.3 L 479 146.43 L 480.63 145.55 L 482.26 144.68 L 483.31 143.63 L 484.35 142.59 L 484.76 141.31 L 485.17 140.02 L 485.58 138.74 L 485.49 137.61 L 485.4 136.47 L 484.99 135.14 L 484.59 133.8 L 484.18 132.46 L 483.09 131.24 L 482 130.02 L 480.91 128.79 L 479.81 127.57 L 478.37 126.57 L 476.92 125.58 L 475.47 124.58 L 474.03 123.58 L 472.58 122.58 L 471.13 121.59 L 469.69 120.59 L 468.51 119.5 L 467.33 118.41 L 466.15 117.31 L 464.97 116.22 L 464.51 114.65 L 464.04 113.08 L 463.58 111.51 L 463.84 110.29 L 464.1 109.06 L 464.45 108.02 L 464.8 106.97 L 465.85 105.88 L 466.9 104.79 L 467.94 103.7 L 468.99 102.6 L 470.47 101.69 L 471.96 100.77 L 473.44 99.85 L 474.93 98.94 L 476.32 98.3 L 477.72 97.66 L 479.12 97.02 L 480.98 96.73 L 482.84 96.44 L 484.7 96.14 L 486.22 96.61 L 487.73 97.08 L 489.24 97.54 L 490.12 97.89 L 491.22 98.88 L 492.33 99.87 L 493.43 100.86 L 494.13 101.82 L 494.83 102.78" fill="none" stroke="#1a1a1a" stroke-width="9.65" stroke-linecap="round" stroke-linejoin="round" stroke-dasharray="129.99" stroke-dashoffset="129.99" />
<path class="tk-s13" d="M 593.27 133.33 L 591.57 134.07 L 589.86 134.82 L 588.16 135.56 L 586.46 136.3 L 585.27 137.56 L 584.08 138.81 L 582.9 140.07 L 581.71 141.33 L 580.52 142.59 L 579.18 143.58 L 577.85 144.56 L 576.51 145.55 L 574.76 146.34 L 573.02 147.13 L 571.09 147.47 L 569.17 147.82 L 567.43 147.53 L 565.68 147.24 L 563.94 146.95 L 562.37 146.43 L 560.79 145.2 L 559.66 143.98 L 558.52 142.76 L 558.12 141.07 L 557.71 139.39 L 557.3 137.7 L 557.48 136.08 L 557.65 134.47 L 557.83 132.85 L 558 131.24 L 558.63 129.6 L 559.26 127.95 L 559.89 126.31 L 560.51 124.67 L 561.14 123.03 L 562.02 121.46 L 562.89 119.89 L 563.76 118.32 L 564.63 116.75 L 565.51 115.17 L 566.7 113.6 L 567.88 112.03 L 569.07 110.46 L 570.26 108.89 L 571.44 107.32 L 572.7 105.99 L 573.96 104.66 L 575.22 103.34 L 576.47 102.01 L 577.73 100.68 L 578.95 99.72 L 580.17 98.76 L 581.83 97.89 L 583.49 97.02 L 585.41 96.49 L 587.33 95.97 L 588.9 95.97 L 590.47 96.38 L 592.05 96.78 L 593.62 97.19 L 594.75 98.15 L 595.89 99.11 L 596.5 100.07 L 597.11 101.03 L 597.63 102.66 L 598.16 104.29 L 598.68 105.92 L 598.68 107.84 L 598.33 109.41 L 597.98 110.98 L 597.63 112.56 L 597.63 114.39 L 597.63 116.22 L 597.11 117.1 L 596.76 118.93 L 596.41 120.76 L 596.58 122.51 L 596.13 124.18 L 595.68 125.86 L 595.22 127.54 L 594.77 129.21 L 594.32 130.89 L 593.79 132.11 L 593.27 133.33 L 594.66 134.73 L 594.63 136.58 L 594.59 138.43 L 594.56 140.28 L 594.52 142.13 L 594.49 143.98 L 594.66 145.68 L 594.84 147.39 L 595.01 149.09 L 595.19 150.79" fill="none" stroke="#1a1a1a" stroke-width="10.23" stroke-linecap="round" stroke-linejoin="round" stroke-dasharray="173.79" stroke-dashoffset="173.79" />
<path class="tk-s14" d="M 620.42 95.04 L 620.86 96.9 L 621.31 98.75 L 621.75 100.61 L 622.19 102.47 L 622.63 104.33 L 622.75 106.2 L 622.87 108.07 L 622.99 109.94 L 623.11 111.81 L 623.23 113.68 L 623.35 115.55 L 623.47 117.42 L 623.58 119.29 L 623.7 121.16 L 623.82 123.03 L 623.94 124.9 L 624.06 126.77 L 624.18 128.64 L 624.44 130.45 L 624.7 132.25 L 624.95 134.06 L 625.21 135.86 L 625.47 137.67 L 625.73 139.47 L 626.17 141.31 L 626.61 143.16 L 627.05 145 L 628.71 145.66 L 630.37 146.33 L 631.7 145.66 L 633.02 145 L 634.35 144.34 L 635.23 142.62 L 636.12 140.9 L 637 139.18 L 637.89 137.46 L 638.77 135.74 L 639.65 134.02 L 640.54 132.3 L 641.42 130.58 L 642.31 128.86 L 643.02 127.06 L 643.73 125.26 L 644.44 123.46 L 645.15 121.66 L 645.86 119.86 L 646.57 118.06 L 647.28 116.26 L 647.99 114.46 L 648.7 112.66 L 649.41 110.86 L 650.12 109.06 L 650.83 107.26 L 651.54 105.46 L 652.25 103.66 L 653.36 102.11 L 654.83 101.38 L 656.31 100.64 L 657.78 99.9 L 659.22 100.79 L 660.65 101.67 L 660.87 102.78 L 661.1 103.88 L 661.06 105.76 L 661.03 107.64 L 661 109.52 L 660.97 111.4 L 660.94 113.28 L 660.91 115.16 L 660.87 117.04 L 660.84 118.92 L 660.81 120.79 L 660.78 122.67 L 660.75 124.55 L 660.72 126.43 L 660.69 128.31 L 660.65 130.19 L 660.78 131.93 L 660.91 133.66 L 661.03 135.4 L 661.16 137.14 L 661.29 138.87 L 661.41 140.61 L 661.54 142.35 L 662.09 144.01 L 662.64 145.66 L 664.19 146.22 L 665.74 146.77 L 667.4 146.22 L 669.05 145.66 L 670.01 144.7 L 670.97 143.75 L 671.93 142.79 L 673.03 141.2 L 674.14 139.61 L 675.24 138.01 L 676.35 136.42 L 677.45 134.83 L 678.34 133.2 L 679.22 131.56 L 680.11 129.92 L 680.99 128.29 L 681.88 126.65 L 682.54 125.16 L 683.2 123.67 L 683.87 122.18 L 684.53 120.68 L 685.16 118.8 L 685.8 116.93 L 686.44 115.05 L 687.07 113.17 L 687.71 111.29 L 688.34 109.41 L 688.98 107.53 L 689.61 105.65 L 690.1 103.93 L 690.59 102.2 L 691.07 100.48 L 691.56 98.75 L 692.04 97.03 L 691.82 95.7 L 691.6 94.38" fill="none" stroke="#1a1a1a" stroke-width="9.86" stroke-linecap="round" stroke-linejoin="round" stroke-dasharray="231.25" stroke-dashoffset="231.25" />
<path class="tk-s15" d="M 652.92 102.34 L 654.02 100.95 L 655.13 99.57 L 656.23 98.19 L 657.34 96.81 L 657.56 98.36 L 657.78 99.9" fill="none" stroke="#1a1a1a" stroke-width="11.93" stroke-linecap="round" stroke-linejoin="round" stroke-dasharray="22.14" stroke-dashoffset="22.14" />
<circle class="tk-s16" cx="633.91" cy="145" r="5.45" fill="#1a1a1a" opacity="0" />
<path class="tk-s17" d="M 708.86 119.54 L 709.2 117.68 L 709.55 115.82 L 709.9 113.95 L 710.43 112.91 L 710.95 111.86 L 711.93 110.5 L 712.91 109.13 L 713.88 107.77 L 714.86 106.41 L 715.84 105.05 L 717.12 103.65 L 718.4 102.26 L 719.68 100.86 L 720.99 99.81 L 722.3 98.76 L 723.93 97.89 L 725.56 97.02 L 727.19 96.14 L 728.85 95.88 L 730.5 95.62 L 732.19 95.8 L 733.88 95.97 L 735.57 96.14 L 737.14 96.84 L 738.71 97.54 L 739.84 98.63 L 740.98 99.72 L 742.11 100.81 L 743.25 101.91 L 744.01 103.3 L 744.76 104.7 L 745.52 106.1 L 745.81 107.73 L 746.1 109.36 L 746.39 110.98 L 746.04 112.44 L 745.69 113.89 L 745.35 115.35 L 744.65 116.22 L 743.95 117.1 L 742.55 118.09 L 741.15 119.07 L 739.76 120.06 L 738.42 120.53 L 737.08 120.99 L 735.74 121.46 L 734.08 121.72 L 732.42 121.98 L 730.77 122.25 L 729.11 122.51 L 727.5 122.47 L 725.89 122.44 L 724.29 122.4 L 722.68 122.37 L 721.08 122.33 L 719.3 122.13 L 717.53 121.93 L 715.75 121.72 L 713.98 121.52 L 712.2 121.31 L 710.43 121.11 L 709.55 120.33 L 708.68 119.54 L 707.11 120.41 L 706.24 121.98 L 705.83 123.5 L 705.42 125.01 L 705.01 126.52 L 704.84 128.14 L 704.66 129.75 L 704.49 131.37 L 704.32 132.98 L 704.61 134.85 L 704.9 136.71 L 705.19 138.57 L 705.71 140.05 L 706.24 141.54 L 707.57 142.99 L 708.91 144.45 L 710.25 145.9 L 711.71 146.49 L 713.16 147.07 L 714.62 147.65 L 716.36 147.91 L 718.11 148.17 L 719.85 148.43 L 721.6 148.7 L 723.29 148.52 L 724.98 148.35 L 726.66 148.17 L 728.3 147.72 L 729.95 147.27 L 731.59 146.81 L 733.23 146.36 L 734.87 145.9 L 736.53 145.03 L 738.19 144.16 L 739.85 143.28 L 741.5 142.41" fill="none" stroke="#1a1a1a" stroke-width="9.8" stroke-linecap="round" stroke-linejoin="round" stroke-dasharray="175.03" stroke-dashoffset="175.03" />
<path class="tk-s18" d="M 758.54 140.84 L 759.53 141.77 L 760.52 142.7 L 761.51 143.63 L 762.79 144.39 L 764.07 145.15 L 765.35 145.9 L 766.92 146.43 L 768.5 146.95 L 770.07 147.47 L 771.58 147.71 L 773.09 147.94 L 774.61 148.17 L 776.06 148.29 L 777.52 148.41 L 778.97 148.52 L 780.6 148.35 L 782.23 148.17 L 783.86 148 L 785.43 147.65 L 787 147.3 L 788.63 146.43 L 790.26 145.55 L 791.89 144.68 L 792.94 143.63 L 793.99 142.59 L 794.39 141.31 L 794.8 140.02 L 795.21 138.74 L 795.12 137.61 L 795.03 136.47 L 794.63 135.14 L 794.22 133.8 L 793.81 132.46 L 792.72 131.24 L 791.63 130.02 L 790.54 128.79 L 789.45 127.57 L 788 126.57 L 786.55 125.58 L 785.11 124.58 L 783.66 123.58 L 782.21 122.58 L 780.77 121.59 L 779.32 120.59 L 778.14 119.5 L 776.96 118.41 L 775.78 117.31 L 774.61 116.22 L 774.14 114.65 L 773.68 113.08 L 773.21 111.51 L 773.47 110.29 L 773.73 109.06 L 774.08 108.02 L 774.43 106.97 L 775.48 105.88 L 776.53 104.79 L 777.58 103.7 L 778.62 102.6 L 780.11 101.69 L 781.59 100.77 L 783.07 99.85 L 784.56 98.94 L 785.95 98.3 L 787.35 97.66 L 788.75 97.02 L 790.61 96.73 L 792.47 96.44 L 794.34 96.14 L 795.85 96.61 L 797.36 97.08 L 798.87 97.54 L 799.75 97.89 L 800.85 98.88 L 801.96 99.87 L 803.07 100.86 L 803.76 101.82 L 804.46 102.78" fill="none" stroke="#1a1a1a" stroke-width="9.65" stroke-linecap="round" stroke-linejoin="round" stroke-dasharray="129.99" stroke-dashoffset="129.99" />
<path class="tk-s19" d="M 819.16 130.54 L 819.42 128.62 L 819.68 126.7 L 819.95 124.78 L 820.21 122.86 L 820.67 121.34 L 821.14 119.83 L 821.61 118.32 L 822.36 116.57 L 823.12 114.83 L 823.87 113.08 L 824.81 111.39 L 825.74 109.7 L 826.67 108.02 L 827.63 106.75 L 828.59 105.48 L 829.55 104.22 L 830.51 102.95 L 831.73 101.67 L 832.95 100.39 L 834.18 99.11 L 835.46 98.18 L 836.74 97.25 L 838.02 96.32 L 839.47 95.68 L 840.93 95.04 L 842.38 94.4 L 843.6 94.4 L 845.29 94.57 L 846.98 94.75 L 848.67 94.92 L 850.01 96.14 L 851.34 97.37 L 852.68 98.59 L 853.44 100.04 L 854.2 101.5 L 854.95 102.95 L 855.48 104.7 L 856 106.44 L 856.17 108.15 L 856.35 109.85 L 856.52 111.55 L 856.7 113.25 L 856.44 115.22 L 856.17 117.18 L 855.91 119.15 L 855.65 121.11 L 855.08 122.81 L 854.52 124.52 L 853.95 126.22 L 853.38 127.92 L 852.54 129.46 L 851.7 130.99 L 850.87 132.53 L 850.03 134.07 L 849.19 135.6 L 848.04 137 L 846.89 138.4 L 845.73 139.79 L 844.58 141.19 L 843.43 142.59 L 841.92 143.75 L 840.4 144.91 L 838.89 146.08 L 837.61 146.72 L 836.33 147.36 L 835.05 148 L 833.24 148.35 L 831.44 148.7 L 829.64 149.05 L 827.89 148.78 L 826.14 148.52 L 824.66 147.39 L 823.18 146.25 L 822.42 144.97 L 821.66 143.69 L 820.91 142.41 L 820.5 140.78 L 820.09 139.15 L 819.69 137.52 L 819.55 135.78 L 819.42 134.03 L 819.29 132.29 L 819.16 130.54" fill="none" stroke="#1a1a1a" stroke-width="10.23" stroke-linecap="round" stroke-linejoin="round" stroke-dasharray="154.78" stroke-dashoffset="154.78" />
<path class="tk-s20" d="M 882.61 93.5 L 883 94.98 L 883.39 96.46 L 883.78 97.95 L 884.16 99.43 L 884.03 101.17 L 883.9 102.91 L 883.77 104.65 L 883.65 106.39 L 883.32 108.2 L 883 110.01 L 882.68 111.81 L 882.36 113.62 L 882.03 115.43 L 881.71 117.23 L 881.39 119.04 L 881.07 120.84 L 880.5 122.75 L 879.93 124.66 L 879.36 126.57 L 878.8 128.48 L 878.23 130.39 L 877.97 132.26 L 877.71 134.13 L 877.45 136 L 877.2 137.87 L 877.71 139.16 L 877.32 140.97 L 876.94 142.78 L 876.55 144.58 L 876.16 146.39 L 876.16 145.23 L 876.16 144.07 L 876.94 142.39 L 877.71 140.71 L 877.71 139.42 L 878.74 138.26 L 879.78 137.1 L 880.81 135.94 L 881.84 134.78 L 880.94 136.13 L 880.03 137.49 L 879.13 138.84 L 878.23 140.2 L 879.84 139.42 L 881.45 138.65 L 883.07 137.87 L 884.68 137.1 L 885.68 135.41 L 886.68 133.73 L 887.68 132.05 L 888.69 130.36 L 889.69 128.68 L 890.69 126.99 L 891.69 125.31 L 892.69 123.62 L 893.69 121.94 L 894.7 120.25 L 895.7 118.57 L 896.7 116.88 L 897.7 115.2 L 898.7 113.51 L 899.7 111.83 L 900.71 110.14 L 901.71 108.46 L 902.91 107 L 904.12 105.54 L 905.32 104.07 L 906.52 102.61 L 907.73 101.15 L 908.93 99.69 L 907.9 100.72 L 909.51 99.95 L 911.12 99.17 L 912.74 98.4 L 914.35 97.62 L 915.64 97.62 L 917.19 98.14 L 918.74 98.65 L 919.77 100.03 L 920.8 101.41 L 921.83 102.78 L 922.22 104.46 L 922.61 106.14 L 922.61 108.07 L 922.61 110.01 L 922.5 111.92 L 922.39 113.84 L 922.27 115.76 L 922.16 117.67 L 922.05 119.59 L 921.94 121.51 L 921.83 123.42 L 922.61 124.07 L 923.38 124.71" fill="none" stroke="#1a1a1a" stroke-width="10.47" stroke-linecap="round" stroke-linejoin="round" stroke-dasharray="177.53" stroke-dashoffset="177.53" />
<path class="tk-s21" d="M 914.09 146.65 L 914.87 145.1 L 915.64 143.55 L 916.41 142 L 917.19 140.45 L 917.96 138.9 L 918.74 137.36 L 919.38 135.46 L 920.03 133.57 L 920.67 131.68 L 921.32 129.79 L 921.96 127.9 L 922.61 126 L 923.64 124.46 L 925.02 123.94 L 926.39 123.42 L 927.77 122.91 L 928.8 122.13 L 929.83 121.36 L 930.78 119.73 L 931.72 118.09 L 932.67 116.46 L 933.61 114.82 L 934.56 113.19 L 935.51 111.56 L 936.58 110.12 L 937.65 108.68 L 938.71 107.24 L 939.78 105.81 L 940.85 104.37 L 941.92 102.93 L 942.99 101.49 L 944.41 100.33 L 945.83 99.17 L 947.7 98.78 L 949.57 98.4 L 951.44 98.01 L 953.31 97.62 L 954.73 98.53 L 956.15 99.43 L 956.79 101.24 L 957.44 103.04 L 957.7 104.46 L 957.95 105.88 L 957.9 107.79 L 957.85 109.7 L 957.8 111.61 L 957.75 113.52 L 957.7 115.43 L 957.34 117.23 L 956.99 119.04 L 956.63 120.84 L 956.28 122.65 L 955.92 124.46 L 955.57 126.26 L 955.21 128.07 L 954.86 129.88 L 954.3 131.6 L 953.74 133.32 L 953.18 135.04 L 952.62 136.76 L 952.06 138.48 L 951.5 140.2 L 950.73 142 L 949.96 143.81 L 949.18 145.61 L 948.41 147.42 L 947.63 149.23" fill="none" stroke="#1a1a1a" stroke-width="10.58" stroke-linecap="round" stroke-linejoin="round" stroke-dasharray="132.02" stroke-dashoffset="132.02" />
<path class="tk-s22" d="M 909.96 99.17 L 911.77 98.53 L 913.58 97.88" fill="none" stroke="#1a1a1a" stroke-width="10.31" stroke-linecap="round" stroke-linejoin="round" stroke-dasharray="14.15" stroke-dashoffset="14.15" />
<path class="tk-s23" d="M 881.32 135.03 L 881.84 135.29 L 881.32 135.03" fill="none" stroke="#1a1a1a" stroke-width="1.17" stroke-linecap="round" stroke-linejoin="round" stroke-dasharray="2.33" stroke-dashoffset="2.33" />
<path class="tk-s24" d="M 980.86 119.54 L 981.2 117.68 L 981.55 115.82 L 981.9 113.95 L 982.43 112.91 L 982.95 111.86 L 983.93 110.5 L 984.91 109.13 L 985.88 107.77 L 986.86 106.41 L 987.84 105.05 L 989.12 103.65 L 990.4 102.26 L 991.68 100.86 L 992.99 99.81 L 994.3 98.76 L 995.93 97.89 L 997.56 97.02 L 999.19 96.14 L 1000.85 95.88 L 1002.5 95.62 L 1004.19 95.8 L 1005.88 95.97 L 1007.57 96.14 L 1009.14 96.84 L 1010.71 97.54 L 1011.84 98.63 L 1012.98 99.72 L 1014.11 100.81 L 1015.25 101.91 L 1016.01 103.3 L 1016.76 104.7 L 1017.52 106.1 L 1017.81 107.73 L 1018.1 109.36 L 1018.39 110.98 L 1018.04 112.44 L 1017.69 113.89 L 1017.35 115.35 L 1016.65 116.22 L 1015.95 117.1 L 1014.55 118.09 L 1013.15 119.07 L 1011.76 120.06 L 1010.42 120.53 L 1009.08 120.99 L 1007.74 121.46 L 1006.08 121.72 L 1004.42 121.98 L 1002.77 122.25 L 1001.11 122.51 L 999.5 122.47 L 997.89 122.44 L 996.29 122.4 L 994.68 122.37 L 993.08 122.33 L 991.3 122.13 L 989.53 121.93 L 987.75 121.72 L 985.98 121.52 L 984.2 121.31 L 982.43 121.11 L 981.55 120.33 L 980.68 119.54 L 979.11 120.41 L 978.24 121.98 L 977.83 123.5 L 977.42 125.01 L 977.01 126.52 L 976.84 128.14 L 976.66 129.75 L 976.49 131.37 L 976.32 132.98 L 976.61 134.85 L 976.9 136.71 L 977.19 138.57 L 977.71 140.05 L 978.24 141.54 L 979.57 142.99 L 980.91 144.45 L 982.25 145.9 L 983.71 146.49 L 985.16 147.07 L 986.62 147.65 L 988.36 147.91 L 990.11 148.17 L 991.85 148.43 L 993.6 148.7 L 995.29 148.52 L 996.98 148.35 L 998.66 148.17 L 1000.3 147.72 L 1001.95 147.27 L 1003.59 146.81 L 1005.23 146.36 L 1006.87 145.9 L 1008.53 145.03 L 1010.19 144.16 L 1011.85 143.28 L 1013.5 142.41" fill="none" stroke="#1a1a1a" stroke-width="9.8" stroke-linecap="round" stroke-linejoin="round" stroke-dasharray="175.03" stroke-dashoffset="175.03" />
</g>
</svg>